<?xml version="1.0" encoding="UTF-8" standalone="no"?>
<!-- Created with Inkscape (http://www.inkscape.org/) -->

<svg
   width="2048"
   height="512"
   viewBox="0 0 541.86665 135.46667"
   version="1.1"
   id="svg1"
   inkscape:version="1.4 (e7c3feb100, 2024-10-09)"
   sodipodi:docname="penumbra.svg"
   xmlns:inkscape="http://www.inkscape.org/namespaces/inkscape"
   xmlns:sodipodi="http://sodipodi.sourceforge.net/DTD/sodipodi-0.dtd"
   xmlns:xlink="http://www.w3.org/1999/xlink"
   xmlns="http://www.w3.org/2000/svg"
   xmlns:svg="http://www.w3.org/2000/svg">
   <style>
      <!-- Custom CSS Styles lol -->
      .circle {
         animation: rotate 10s infinite linear;
         transform-origin: 50% 50%;
      }

      @keyframes rotate {
         0% {
            transform: rotateZ(0);
         }
         100% {
            transform: rotateZ(360deg);
         }
      }
   </style>
  <sodipodi:namedview
     id="namedview1"
     pagecolor="#505050"
     bordercolor="#eeeeee"
     borderopacity="1"
     inkscape:showpageshadow="0"
     inkscape:pageopacity="0"
     inkscape:pagecheckerboard="0"
     inkscape:deskcolor="#505050"
     inkscape:document-units="px"
     inkscape:zoom="0.57549499"
     inkscape:cx="1059.9571"
     inkscape:cy="327.54412"
     inkscape:window-width="1900"
     inkscape:window-height="1028"
     inkscape:window-x="0"
     inkscape:window-y="0"
     inkscape:window-maximized="1"
     inkscape:current-layer="layer1" />
  <defs
     id="defs1">
    <linearGradient
       id="linearGradient35"
       inkscape:collect="always">
      <stop
         style="stop-color:#ffffff;stop-opacity:1;"
         offset="0"
         id="stop35" />
      <stop
         style="stop-color:#f3cef3;stop-opacity:1;"
         offset="0.5"
         id="stop37" />
      <stop
         style="stop-color:#ffffff;stop-opacity:1;"
         offset="1"
         id="stop36" />
    </linearGradient>
    <linearGradient
       id="linearGradient29"
       inkscape:collect="always">
      <stop
         style="stop-color:#ffffff;stop-opacity:1;"
         offset="0"
         id="stop30" />
      <stop
         style="stop-color:#e9bee9;stop-opacity:1;"
         offset="0.7450943"
         id="stop32" />
      <stop
         style="stop-color:#d49deb;stop-opacity:1;"
         offset="0.87254715"
         id="stop33" />
      <stop
         style="stop-color:#d9c8ff;stop-opacity:1;"
         offset="1"
         id="stop31" />
    </linearGradient>
    <rect
       x="32.58231"
       y="103.17732"
       width="2005.6222"
       height="407.27888"
       id="rect1" />
    <radialGradient
       inkscape:collect="always"
       xlink:href="#linearGradient29"
       id="radialGradient29"
       cx="270.93353"
       cy="67.733345"
       fx="270.93353"
       fy="67.733345"
       r="67.46875"
       gradientUnits="userSpaceOnUse"
       gradientTransform="matrix(0.99999976,0.00312496,-0.00312036,0.99999513,0.21121985,-0.84633499)"
       spreadMethod="pad" />
    <linearGradient
       inkscape:collect="always"
       xlink:href="#linearGradient35"
       id="linearGradient36"
       x1="46.546875"
       y1="209.17654"
       x2="1513.1484"
       y2="209.17654"
       gradientUnits="userSpaceOnUse" />
  </defs>
  <g
     inkscape:groupmode="layer"
     id="layer2"
     inkscape:label="MagicCircle"
     inkscape:highlight-color="#d735f3"
     style="fill:none;stroke:url(#radialGradient29);fill-opacity:1"
     class="circle">
    <circle
       style="display:none;fill:none;stroke:url(#radialGradient29);stroke-width:1.32292;stroke-linecap:butt;stroke-dasharray:none;fill-opacity:1.0"
       id="circle2"
       cx="270.93332"
       cy="67.73333"
       inkscape:label="outerTemplate"
       r="62.177082" />
    <circle
       style="display:none;fill:none;stroke:url(#radialGradient29);stroke-width:1.32292;stroke-linecap:butt;stroke-dasharray:none;fill-opacity:1.0"
       id="circle3"
       cx="270.93332"
       cy="67.73333"
       inkscape:label="innerTemplate"
       r="54.239582" />
    <circle
       style="fill:none;stroke:url(#radialGradient29);stroke-width:2.64583;stroke-linecap:round;stroke-dasharray:none;fill-opacity:1.0"
       id="path1"
       cx="270.93332"
       cy="67.73333"
       inkscape:label="Outer"
       r="66.145836"
       inkscape:export-filename="penumbra.png"
       inkscape:export-xdpi="96"
       inkscape:export-ydpi="96" />
    <circle
       style="fill:none;stroke:url(#radialGradient29);stroke-width:1.32291666;stroke-linecap:round;stroke-dasharray:none;fill-opacity:1.0"
       id="circle1"
       cx="270.93332"
       cy="67.73333"
       inkscape:label="baseline"
       r="58.208332" />
    <g
       inkscape:groupmode="layer"
       id="layer3"
       inkscape:label="MagicCircle-Letters-Arcs"
       inkscape:highlight-color="#910ab0"
       style="fill-opacity:1.0;stroke:url(#radialGradient29)">
      <g
         id="g3"
         inkscape:label="P"
         style="stroke-linecap:square;fill-opacity:1.0;stroke:url(#radialGradient29)">
        <path
           style="display:inline;fill:none;stroke:url(#radialGradient29);stroke-width:1.32292;stroke-linecap:square;stroke-dasharray:none;fill-opacity:1.0"
           id="circle2-7"
           inkscape:label="outer-P"
           sodipodi:type="arc"
           sodipodi:cx="270.93332"
           sodipodi:cy="67.73333"
           sodipodi:rx="62.177082"
           sodipodi:ry="62.177082"
           sodipodi:start="4.4505896"
           sodipodi:end="4.712389"
           sodipodi:open="true"
           sodipodi:arc-type="arc"
           d="M 254.84071,7.6748803 A 62.177082,62.177082 0 0 1 270.93332,5.5562477" />
        <path
           style="display:inline;fill:none;stroke:url(#radialGradient29);stroke-width:1.32292;stroke-linecap:square;stroke-dasharray:none;fill-opacity:1.0"
           id="circle3-8"
           inkscape:label="inner-P"
           sodipodi:type="arc"
           sodipodi:cx="270.93332"
           sodipodi:cy="67.73333"
           sodipodi:rx="54.239582"
           sodipodi:ry="54.239582"
           sodipodi:start="4.4505896"
           sodipodi:end="4.9741884"
           sodipodi:open="true"
           sodipodi:arc-type="arc"
           d="m 256.89508,15.341917 a 54.239582,54.239582 0 0 1 28.07648,0" />
      </g>
      <path
         style="display:inline;fill:none;stroke:url(#radialGradient29);stroke-width:1.32292;stroke-linecap:butt;stroke-dasharray:none;fill-opacity:1.0"
         id="circle3-1"
         inkscape:label="E"
         sodipodi:type="arc"
         sodipodi:cx="270.93332"
         sodipodi:cy="67.73333"
         sodipodi:rx="54.239582"
         sodipodi:ry="54.239582"
         sodipodi:start="5.2359878"
         sodipodi:end="5.7595865"
         sodipodi:arc-type="arc"
         d="m 298.05311,20.760475 a 54.239582,54.239582 0 0 1 19.85307,19.853064"
         sodipodi:open="true" />
      <path
         style="display:inline;fill:none;stroke:url(#radialGradient29);stroke-width:1.32292;stroke-linecap:square;stroke-dasharray:none;fill-opacity:1.0"
         id="circle2-3"
         inkscape:label="N"
         sodipodi:type="arc"
         sodipodi:cx="270.93332"
         sodipodi:cy="67.73333"
         sodipodi:rx="62.177082"
         sodipodi:ry="62.177082"
         sodipodi:start="6.0213859"
         sodipodi:end="0.26179939"
         sodipodi:arc-type="arc"
         d="m 330.99177,51.640716 a 62.177082,62.177082 0 0 1 0,32.185227"
         sodipodi:open="true" />
      <path
         style="display:inline;fill:none;stroke:url(#radialGradient29);stroke-width:1.32292;stroke-linecap:square;stroke-dasharray:none;fill-opacity:1.0"
         id="path3"
         inkscape:label="U"
         sodipodi:type="arc"
         sodipodi:cx="270.93332"
         sodipodi:cy="67.73333"
         sodipodi:rx="54.239582"
         sodipodi:ry="54.239582"
         sodipodi:start="0.52359878"
         sodipodi:end="1.0471976"
         sodipodi:arc-type="arc"
         d="M 317.90618,94.853121 A 54.239582,54.239582 0 0 1 298.05311,114.70619"
         sodipodi:open="true" />
      <path
         style="display:inline;fill:none;stroke:url(#radialGradient29);stroke-width:1.32292;stroke-linecap:square;stroke-dasharray:none;fill-opacity:1.0"
         id="path4"
         inkscape:label="M"
         sodipodi:type="arc"
         sodipodi:cx="270.93332"
         sodipodi:cy="67.73333"
         sodipodi:rx="62.177082"
         sodipodi:ry="62.177082"
         sodipodi:start="1.3089969"
         sodipodi:end="1.8325957"
         sodipodi:arc-type="arc"
         d="m 287.02593,127.79178 a 62.177082,62.177082 0 0 1 -32.18522,0"
         sodipodi:open="true" />
      <path
         style="display:inline;fill:none;stroke:url(#radialGradient29);stroke-width:1.32292;stroke-linecap:square;stroke-dasharray:none;fill-opacity:1.0"
         id="path5"
         inkscape:label="B"
         sodipodi:type="arc"
         sodipodi:cx="270.93332"
         sodipodi:cy="67.73333"
         sodipodi:rx="62.177082"
         sodipodi:ry="62.177082"
         sodipodi:start="2.0943951"
         sodipodi:end="2.6179939"
         sodipodi:arc-type="arc"
         d="M 239.84478,121.58026 A 62.177082,62.177082 0 0 1 217.08639,98.82187"
         sodipodi:open="true" />
      <g
         id="g6"
         inkscape:label="R"
         style="stroke-linecap:square;fill-opacity:1.0;stroke:url(#radialGradient29)">
        <path
           style="display:inline;fill:none;stroke:url(#radialGradient29);stroke-width:1.32292;stroke-linecap:square;stroke-dasharray:none;fill-opacity:1.0"
           id="path2"
           inkscape:label="outer-R"
           sodipodi:type="arc"
           sodipodi:cx="270.93332"
           sodipodi:cy="67.73333"
           sodipodi:rx="62.177082"
           sodipodi:ry="62.177082"
           sodipodi:start="2.8797933"
           sodipodi:end="3.403392"
           sodipodi:open="true"
           sodipodi:arc-type="arc"
           d="m 210.87487,83.825941 a 62.177082,62.177082 0 0 1 0,-32.185222" />
        <path
           style="display:inline;fill:none;stroke:url(#radialGradient29);stroke-width:1.32292;stroke-linecap:square;stroke-dasharray:none;fill-opacity:1.0"
           id="path6"
           inkscape:label="inner-R"
           sodipodi:type="arc"
           sodipodi:cx="270.93332"
           sodipodi:cy="67.73333"
           sodipodi:rx="54.239582"
           sodipodi:ry="54.239582"
           sodipodi:start="2.8797933"
           sodipodi:end="3.403392"
           sodipodi:open="true"
           sodipodi:arc-type="arc"
           d="m 218.54191,81.771565 a 54.239582,54.239582 0 0 1 0,-28.07647" />
      </g>
      <path
         style="display:inline;fill:none;stroke:url(#radialGradient29);stroke-width:1.32292;stroke-linecap:square;stroke-dasharray:none;fill-opacity:1.0"
         id="path7"
         inkscape:label="A"
         sodipodi:type="arc"
         sodipodi:cx="270.93332"
         sodipodi:cy="67.73333"
         sodipodi:rx="62.177082"
         sodipodi:ry="62.177082"
         sodipodi:start="3.6651914"
         sodipodi:end="4.1887902"
         sodipodi:arc-type="arc"
         d="M 217.08639,36.64479 A 62.177082,62.177082 0 0 1 239.84478,13.886397"
         sodipodi:open="true" />
    </g>
    <g
       inkscape:groupmode="layer"
       id="layer4"
       inkscape:label="MagicCircle-Letters-Connector"
       style="fill-opacity:1.0;stroke:url(#radialGradient29)">
      <path
         style="fill:none;stroke:url(#radialGradient29);stroke-width:1.32291666;stroke-linecap:square;stroke-dasharray:none;fill-opacity:1.0"
         d="m 254.84071,7.6748803 2.05437,7.6670367 m 14.03824,-9.7856693 v 7.9375003"
         id="path8"
         inkscape:label="P" />
      <path
         style="fill:none;stroke:url(#radialGradient29);stroke-width:1.32292;stroke-linecap:square;stroke-dasharray:none;fill-opacity:1.0"
         d="m 298.05312,20.760475 3.96875,-6.874077 m 15.8843,26.727139 6.87408,-3.96875 m -15.8001,-7.568549 5.61282,-5.612815"
         id="path9"
         inkscape:label="E" />
      <path
         style="fill:none;stroke:url(#radialGradient29);stroke-width:1.32292;stroke-linecap:square;stroke-dasharray:none;fill-opacity:1.0"
         d="m 330.99176,51.640716 -7.66704,2.054375 m 7.66705,30.130852 -7.66704,-2.054376 m 8.46215,-26.798847 -7.81447,1.412187"
         id="path10"
         inkscape:label="N" />
      <path
         style="fill:none;stroke:url(#radialGradient29);stroke-width:1.32292;stroke-linecap:square;stroke-dasharray:none;fill-opacity:1.0"
         d="m 317.90618,94.853121 6.87406,3.96875 m -26.72713,15.884319 3.96875,6.87407"
         id="path11"
         inkscape:label="U" />
      <path
         style="fill:none;stroke:url(#radialGradient29);stroke-width:1.32292;stroke-linecap:square;stroke-dasharray:none;fill-opacity:1.0"
         d="m 287.02592,127.79178 -2.05435,-7.66704 m -30.13086,7.66704 2.05437,-7.66704 m 14.03824,9.78567 v -7.9375 m 12.58355,6.65084 -1.48842,-7.79776"
         id="path12"
         inkscape:label="M" />
      <path
         style="fill:none;stroke:url(#radialGradient29);stroke-width:1.32292;stroke-linecap:square;stroke-dasharray:none;fill-opacity:1.0"
         d="m 217.08638,98.821868 6.87408,-3.968749 m 15.88432,26.727141 3.96875,-6.87407 m -17.03041,-3.19216 2.80636,-2.80635"
         id="path14"
         inkscape:label="B" />
      <path
         style="fill:none;stroke:url(#radialGradient29);stroke-width:1.32292;stroke-linecap:square;stroke-dasharray:none;fill-opacity:1.0"
         d="m 218.5419,81.771563 -7.66703,2.054378 m 5.81887,-16.092611 h -7.9375"
         id="path16"
         inkscape:label="R" />
      <path
         style="fill:none;stroke:url(#radialGradient29);stroke-width:1.32292;stroke-linecap:square;stroke-dasharray:none;fill-opacity:1.0"
         d="m 217.08638,36.644791 6.87408,3.96875 m 15.88432,-26.727144 3.96875,6.874077"
         id="path17"
         inkscape:label="A" />
    </g>
    <circle
       style="fill:none;stroke:url(#radialGradient29);stroke-width:2.64583;stroke-linecap:round;stroke-dasharray:none;fill-opacity:1.0"
       id="circle17"
       cx="270.93332"
       cy="67.73333"
       inkscape:label="Inner"
       r="50.270832" />
  </g>
  <g
     inkscape:label="Title"
     inkscape:groupmode="layer"
     id="layer1"
     style="display:inline">
    <path
       d="m 46.546875,143.5125 q 12.207031,0 24.21875,-0.0976 12.109375,-0.0977 22.167969,-0.19532 10.058596,-0.19531 17.187496,-0.48828 7.12891,-0.29297 9.66797,-0.78125 l -4.78515,12.98828 q -3.22266,-0.8789 -7.51953,-1.5625 -3.71094,-0.58593 -9.082036,-1.07421 -5.273438,-0.58594 -12.207032,-0.58594 -2.34375,0 -5.664062,0.19531 -3.222656,0.0977 -6.25,0.29297 -3.515625,0.19531 -7.128906,0.39062 v 53.32032 q 10.058593,-0.0977 18.164062,-0.58594 8.105469,-0.48828 13.769531,-0.97656 6.640623,-0.58594 11.718753,-1.36719 l -3.02735,14.16016 q -6.73828,-0.87891 -13.769528,-1.66016 -6.054687,-0.68359 -13.183593,-1.17188 -7.128907,-0.58593 -13.671875,-0.58593 v 61.23047 q 11.523437,0 21.191406,-0.97657 9.667969,-0.97656 16.89453,-2.24609 8.39844,-1.36719 15.33203,-3.22266 l -2.83203,15.82032 q -1.17187,-0.0977 -3.51562,-0.19532 -2.34375,-0.0976 -5.27344,-0.19531 -2.83203,-0.0977 -6.05469,-0.19531 -3.124999,0 -5.95703,-0.0977 -2.832031,0 -5.078125,-0.0976 -2.148438,0 -3.125,0 h -42.1875 v -0.39063 q 0.585937,-2.05078 1.074219,-5.07812 0.585937,-3.02735 0.976562,-7.51954 0.390625,-4.49218 0.585938,-10.64453 0.195312,-6.25 0.195312,-14.55078 v -63.57422 q 0,-8.30078 -0.195312,-14.45312 -0.195313,-6.25 -0.585938,-10.74219 -0.390625,-4.58984 -0.976562,-7.61719 -0.488282,-3.02734 -1.074219,-5.07812 v -0.39063 z m 180.273435,119.23828 -7.22656,17.38282 q -2.63672,1.17187 -6.05469,2.14843 -3.41797,0.97657 -7.1289,1.66016 -3.61329,0.68359 -7.32422,0.97656 -3.71094,0.39063 -7.03125,0.39063 -11.81641,0 -21.875,-3.41797 -9.96094,-3.51563 -17.28516,-10.15625 -7.22656,-6.64063 -11.32812,-16.30859 -4.10157,-9.66797 -4.10157,-22.07032 0,-11.03515 4.19922,-20.41015 4.29688,-9.47266 11.81641,-16.40625 7.61719,-6.9336 17.87109,-10.83985 10.25391,-3.90625 22.26563,-3.90625 5.46875,0 11.71875,0.97657 6.25,0.8789 11.13281,2.34375 l 6.93359,16.60156 -1.17187,0.68359 q -2.44141,-3.02734 -5.85938,-5.46875 -3.32031,-2.53906 -7.42187,-4.29687 -4.00391,-1.75782 -8.4961,-2.73438 -4.49218,-0.97656 -9.17968,-0.97656 -7.61719,0 -13.86719,2.73437 -6.25,2.63672 -10.74219,7.71485 -4.49219,5.07812 -7.03125,12.5 -2.4414,7.32422 -2.4414,16.69922 0,10.54687 2.34375,19.6289 2.4414,9.08203 7.1289,15.82032 4.78516,6.64062 11.91406,10.44921 7.22657,3.71094 16.89454,3.71094 4.49218,0 8.88671,-1.07422 4.49219,-1.17187 8.39844,-3.22265 4.00391,-2.14844 7.32422,-5.07813 3.32031,-2.92969 5.56641,-6.64062 z m 39.35547,12.20704 q 11.52344,0 21.19141,-0.97657 9.66797,-0.97656 16.89453,-2.24609 8.39844,-1.36719 15.33203,-3.22266 l -2.83203,15.82032 q -1.17188,-0.0977 -3.51563,-0.19532 -2.34375,-0.0976 -5.27343,-0.19531 -2.83204,-0.0977 -6.05469,-0.19531 -3.125,0 -5.95703,-0.0977 -2.83203,0 -5.07813,-0.0976 -2.14844,0 -3.125,0 h -42.1875 v -0.39063 q 0.58594,-2.05078 1.07422,-5.07812 0.58594,-3.02735 0.97656,-7.51954 0.39063,-4.49218 0.58594,-10.64453 0.19531,-6.25 0.19531,-14.55078 v -63.57422 q 0,-8.30078 -0.19531,-14.45312 -0.19531,-6.25 -0.58594,-10.74219 -0.39062,-4.58984 -0.97656,-7.61719 -0.48828,-3.02734 -1.07422,-5.07812 v -0.39063 h 23.4375 v 0.39063 q -0.58594,2.05078 -1.17187,5.07812 -0.48828,3.02735 -0.87891,7.61719 -0.29297,4.49219 -0.58594,10.74219 -0.19531,6.15234 -0.19531,14.45312 z m 73.04688,-53.22266 q 0,-8.30078 -0.29297,-14.45313 -0.19532,-6.25 -0.58594,-10.74218 -0.29297,-4.49219 -0.87891,-7.51953 -0.48828,-3.02735 -1.07422,-5.07813 v -0.39062 h 22.5586 v 0.39062 q -0.58594,2.05078 -1.07422,5.07813 -0.48828,3.02734 -0.87891,7.51953 -0.39062,4.49218 -0.58593,10.74218 -0.19532,6.15235 -0.19532,14.45313 v 23.63281 q 0,8.30078 0.19532,14.55078 0.19531,6.15235 0.58593,10.64453 0.39063,4.49219 0.87891,7.51954 0.48828,3.02734 1.07422,5.07812 v 0.39063 h -22.5586 v -0.39063 q 0.58594,-2.05078 1.07422,-5.07812 0.58594,-3.02735 0.87891,-7.51954 0.39062,-4.49218 0.58594,-10.64453 0.29297,-6.25 0.29297,-14.55078 z m -2.05079,-67.77344 q 0,-2.14844 0.78125,-4.0039 0.87891,-1.95313 2.2461,-3.32032 1.36719,-1.46484 3.22265,-2.24609 1.95313,-0.87891 4.19922,-0.87891 2.2461,0 4.10157,0.87891 1.95312,0.78125 3.32031,2.24609 1.46484,1.36719 2.24609,3.32032 0.87891,1.85546 0.87891,4.0039 0,4.49219 -3.02735,7.51953 -3.02734,3.02735 -7.51953,3.02735 -2.24609,0 -4.19922,-0.78125 -1.85546,-0.87891 -3.22265,-2.2461 -1.36719,-1.46484 -2.2461,-3.32031 -0.78125,-1.95312 -0.78125,-4.19922 z m 66.69922,34.57031 q 6.15235,-3.32031 13.1836,-4.98046 7.03125,-1.75782 14.35547,-1.75782 10.83984,0 20.01953,3.71094 9.27734,3.61328 16.01562,10.35156 6.73828,6.73828 10.54688,16.40625 3.80859,9.66797 3.80859,21.67969 0,10.05859 -3.51562,19.33594 -3.41797,9.27734 -10.35157,16.40625 -6.83593,7.1289 -17.08984,11.42578 -10.15625,4.19922 -23.63281,4.19922 -1.5625,0 -4.19922,-0.0977 -2.53906,-0.0976 -5.66406,-0.39062 -3.125,-0.29297 -6.64063,-0.78125 -3.51562,-0.48828 -6.83594,-1.26953 -4.6875,-1.07422 -9.47265,-2.34375 -4.6875,-1.36719 -8.98438,-3.02735 0.39063,-1.46484 0.6836,-4.88281 0.29296,-3.51563 0.39062,-7.51953 0.19531,-4.00391 0.29297,-7.8125 0.0977,-3.90625 0.0977,-6.25 v -75.19531 q 0,-8.30079 -0.29297,-14.45313 -0.19532,-6.25 -0.58594,-10.74219 -0.29297,-4.49218 -0.87891,-7.51953 -0.48828,-3.02734 -1.07422,-5.07812 v -0.39063 h 22.5586 v 0.39063 q -0.58594,2.05078 -1.07422,5.07812 -0.48828,3.02735 -0.87891,7.51953 -0.39062,4.49219 -0.58593,10.74219 -0.19532,6.15234 -0.19532,14.45313 z m 0,60.83985 q 0,7.91015 0.0977,13.08594 0.19531,5.17578 0.48828,8.30078 4.10156,3.125 11.13281,5.27343 7.03125,2.14844 15.42969,2.14844 6.93359,0 12.69531,-2.73437 5.76172,-2.73438 9.86328,-7.91016 4.10157,-5.17578 6.34766,-12.59766 2.34375,-7.42187 2.34375,-16.79687 0,-10.54688 -1.95312,-19.53125 -1.95313,-9.08203 -6.05469,-15.625 -4.10156,-6.64063 -10.44922,-10.35156 -6.34766,-3.71094 -15.13672,-3.71094 -7.42187,0 -13.86719,3.02734 -6.44531,3.02735 -10.9375,8.78907 z m 143.94532,-46.19141 -1.36719,0.19531 q -0.6836,-2.24609 -2.2461,-4.78515 -1.46484,-2.53906 -3.90625,-4.6875 -2.34375,-2.14844 -5.76171,-3.51563 -3.32032,-1.46484 -7.71485,-1.46484 -3.02734,0 -5.76172,0.87891 -2.63672,0.8789 -4.6875,2.63671 -1.95312,1.66016 -3.125,4.19922 -1.17187,2.53907 -1.17187,5.95703 0,4.78516 2.92969,9.17969 3.02734,4.29688 7.51953,8.59375 4.49218,4.19922 9.66797,8.4961 5.27343,4.29687 9.76562,8.98437 4.49219,4.6875 7.42188,10.05859 3.02734,5.27344 3.02734,11.42579 0,4.98046 -1.75781,9.76562 -1.75782,4.6875 -5.46875,8.39844 -3.61328,3.71094 -9.375,6.05469 -5.66407,2.24609 -13.57422,2.24609 -4.6875,0 -8.78906,-0.87891 -4.00391,-0.8789 -7.42188,-2.14843 -3.32031,-1.36719 -6.05469,-2.92969 -2.63672,-1.66016 -4.6875,-3.125 l 0.97657,-18.55469 h 1.5625 q 0.97656,4.58984 2.92968,8.39844 1.95313,3.80859 4.78516,6.54297 2.92969,2.63672 6.64062,4.19922 3.71094,1.46484 8.10547,1.46484 7.22657,0 11.42578,-4.00391 Q 536,270.7586 536,264.31328 q 0,-5.17578 -2.92969,-9.47265 -2.83203,-4.39453 -7.22656,-8.39844 -4.39453,-4.00391 -9.47266,-8.00781 -4.98047,-4.00391 -9.375,-8.4961 -4.39453,-4.58984 -7.32422,-9.96093 -2.83203,-5.46875 -2.83203,-12.40235 0,-5.66406 2.05078,-10.35156 2.14844,-4.78516 5.85938,-8.10547 3.80859,-3.41797 8.98437,-5.27344 5.17579,-1.85546 11.32813,-1.85546 8.10547,0 13.47656,1.75781 5.46875,1.66015 8.30078,3.22265 z m 106.15234,18.35938 q 9.57031,1.75781 17.48047,0.39062 8.00781,-1.46484 13.67187,-6.05469 5.76172,-4.6875 8.88672,-12.59765 3.22266,-7.91016 3.22266,-19.33594 0,-7.91016 -1.66016,-14.35547 -1.66015,-6.54297 -4.98047,-11.03515 -3.22265,-4.58985 -8.20312,-7.03125 -4.98047,-2.53907 -11.6211,-2.53907 -4.19921,0 -7.32421,0.39063 -3.125,0.29297 -5.27344,0.68359 -2.53906,0.48828 -4.19922,1.07422 z M 633.36328,143.5125 q 1.95313,0.19532 4.10156,0.39063 1.85547,0.19531 4.10157,0.29297 2.34375,0 4.78515,0 3.8086,0 10.25391,-0.87891 6.54297,-0.97656 16.60156,-0.97656 9.375,0 17.28516,2.73437 8.00781,2.73438 13.86718,8.00782 5.85938,5.27343 9.08204,12.89062 3.32031,7.51953 3.32031,17.1875 0,12.98828 -5.17578,22.46094 -5.17578,9.47265 -13.86719,15.33203 -8.69141,5.85937 -20.01953,8.00781 -11.32813,2.05078 -23.73047,0.19531 v 16.21094 q 0,8.30078 0.19531,14.55078 0.29297,6.15235 0.58594,10.64453 0.39062,4.49219 0.87891,7.51954 0.58593,3.02734 1.17187,5.07812 v 0.39063 h -23.4375 v -0.39063 q 0.58594,-2.05078 1.07422,-5.07812 0.58594,-3.02735 0.97656,-7.51954 0.39063,-4.49218 0.58594,-10.64453 0.19531,-6.25 0.19531,-14.55078 v -63.57422 q 0,-8.30078 -0.19531,-14.45312 -0.19531,-6.25 -0.58594,-10.74219 -0.39062,-4.58984 -0.97656,-7.61719 -0.48828,-3.02734 -1.07422,-5.07812 z M 776.625,285.30938 q -10.83984,0 -20.3125,-3.41797 -9.47266,-3.41797 -16.50391,-9.96094 -7.03125,-6.64062 -11.13281,-16.30859 -4.00391,-9.76563 -4.00391,-22.26563 0,-11.03515 3.71094,-20.41015 3.71094,-9.47266 10.25391,-16.40625 6.54297,-6.9336 15.23437,-10.83985 8.78907,-3.90625 18.94532,-3.90625 10.05859,0 18.65234,3.51563 8.59375,3.41797 14.84375,10.05859 6.34766,6.54297 9.96094,16.3086 3.71093,9.66796 4.0039,22.07031 -11.03515,-0.19531 -22.07031,-0.29297 -11.03516,-0.0977 -22.94922,-0.0977 -8.49609,0 -16.60156,0.0977 -8.00781,0.0977 -14.45313,0.29297 0.58594,10.15625 3.125,18.35937 2.63672,8.20313 7.12891,14.0625 4.58984,5.76172 11.03516,8.88672 6.54297,3.125 14.74609,3.125 5.66406,0 10.64453,-1.26953 5.07813,-1.36719 9.17969,-3.71094 4.10156,-2.34375 7.32422,-5.46875 3.22265,-3.22265 5.46875,-6.93359 l 1.17187,0.58594 -7.22656,17.38281 q -5.27344,2.73437 -12.59766,4.6875 -7.32421,1.85547 -17.57812,1.85547 z m -12.98828,-59.57031 q 9.76562,0 19.53125,0 9.86328,-0.0977 17.87109,-0.39063 -0.8789,-8.49609 -3.32031,-15.23437 -2.44141,-6.73829 -6.25,-11.42579 -3.80859,-4.6875 -8.98438,-7.22656 -5.17578,-2.53906 -11.42578,-2.53906 -5.66406,0 -10.44922,2.53906 -4.6875,2.44141 -8.20312,7.12891 -3.51563,4.6875 -5.66406,11.52344 -2.14844,6.73828 -2.53907,15.42968 4.39454,0.19532 9.27735,0.19532 4.88281,0 10.15625,0 z m 144.82422,-8.00782 q 0,-12.89062 -5.17578,-18.94531 -5.17579,-6.05469 -13.86719,-6.05469 -3.125,0 -7.03125,1.36719 -3.90625,1.26953 -8.00781,3.51563 -4.10157,2.14843 -8.20313,5.07812 -4.10156,2.92969 -7.71484,6.25 l -0.19532,12.79297 v 23.63281 q 0,8.30078 0.19532,14.55078 0.19531,6.15235 0.58593,10.64453 0.39063,4.49219 0.87891,7.51954 0.48828,3.02734 1.07422,5.07812 v 0.39063 h -22.55859 v -0.39063 q 0.58593,-2.05078 1.07421,-5.07812 0.58594,-3.02735 0.87891,-7.51954 0.39063,-4.49218 0.58594,-10.64453 0.29297,-6.25 0.29297,-14.55078 v -23.63281 q 0,-8.30078 -0.29297,-14.45313 -0.19531,-6.25 -0.58594,-10.74218 -0.29297,-4.49219 -0.87891,-7.51953 -0.48828,-3.02735 -1.07421,-5.07813 v -0.39062 H 861 v 0.39062 q -0.78125,2.44141 -1.26953,6.25 -0.39063,3.71094 -0.87891,9.76563 4.00391,-3.32032 8.59375,-6.64063 4.6875,-3.32031 9.66797,-5.85937 4.98047,-2.63672 10.15625,-4.19922 5.17578,-1.66016 10.15625,-1.66016 7.61719,0 12.89063,2.63672 5.37109,2.63672 8.6914,6.93359 3.41797,4.29688 4.88281,9.86328 1.5625,5.46875 1.5625,11.13282 v 33.20312 q 0,8.30078 0.19532,14.55078 0.19531,6.15235 0.58593,10.64453 0.39063,4.49219 0.87891,7.51954 0.48828,3.02734 1.07422,5.07812 v 0.39063 h -22.55859 v -0.39063 q 0.58593,-2.05078 1.07421,-5.07812 0.58594,-3.02735 0.87891,-7.51954 0.39063,-4.49218 0.58594,-10.64453 0.29297,-6.25 0.29297,-14.55078 z m 62.79297,31.64063 q 0,12.89062 5.07812,18.94531 5.17578,6.05469 13.86719,6.05469 3.125,0 7.03125,-1.26953 3.90623,-1.36719 8.00783,-3.51563 4.1992,-2.24609 8.3008,-5.17578 4.1992,-2.92969 7.7148,-6.25 0.1953,-2.83203 0.1953,-5.95703 0,-3.22266 0,-6.83594 v -23.63281 q 0,-8.30078 -0.293,-14.45313 -0.1953,-6.25 -0.5859,-10.74218 -0.293,-4.49219 -0.8789,-7.51953 -0.4883,-3.02735 -1.0742,-5.07813 v -0.39062 h 22.5586 v 0.39062 q -0.586,2.05078 -1.0742,5.07813 -0.4883,3.02734 -0.8789,7.51953 -0.3907,4.49218 -0.586,10.74218 -0.1953,6.15235 -0.1953,14.45313 v 23.63281 q 0,8.30078 0.1953,14.55078 0.1953,6.15235 0.586,10.64453 0.3906,4.49219 0.8789,7.51954 0.4882,3.02734 1.0742,5.07812 v 0.39063 h -22.5586 v -0.39063 q 0.5859,-2.44141 1.1719,-6.25 0.6836,-3.80859 0.9765,-9.96094 -4.0039,3.41797 -8.6914,6.73828 -4.5898,3.32032 -9.668,5.95704 -4.98042,2.63671 -10.1562,4.19921 -5.07813,1.66016 -10.05859,1.66016 -7.61719,0 -12.98829,-2.63672 -5.27343,-2.63672 -8.6914,-6.93359 -3.32031,-4.29688 -4.88281,-9.76563 -1.46485,-5.46875 -1.46485,-11.23047 v -33.20312 q 0,-8.30078 -0.19531,-14.45313 -0.19531,-6.25 -0.58594,-10.74218 -0.39062,-4.49219 -0.8789,-7.51953 -0.48829,-3.02735 -1.07422,-5.07813 v -0.39062 h 22.55859 v 0.39062 q -0.58594,2.05078 -1.07422,5.07813 -0.48828,3.02734 -0.8789,7.51953 -0.39063,4.49218 -0.58594,10.74218 -0.19531,6.15235 -0.19531,14.45313 z m 162.30469,-31.64063 q 0,-6.44531 -1.3672,-11.13281 -1.2695,-4.6875 -3.8086,-7.71484 -2.4414,-3.125 -5.957,-4.58985 -3.5156,-1.5625 -7.8125,-1.5625 -2.9297,0 -6.543,1.17188 -3.6133,1.17187 -7.5195,3.22265 -3.8086,1.95313 -7.7149,4.58985 -3.8086,2.63672 -7.2265,5.66406 -0.1953,3.125 -0.1953,6.73828 0,3.51563 0,7.61719 v 23.63281 q 0,8.30078 0.1953,14.55078 0.1953,6.15235 0.5859,10.64453 0.3906,4.49219 0.8789,7.51954 0.4883,3.02734 1.0742,5.07812 v 0.39063 h -22.5586 v -0.39063 q 0.586,-2.05078 1.0743,-5.07812 0.5859,-3.02735 0.8789,-7.51954 0.3906,-4.49218 0.5859,-10.64453 0.293,-6.25 0.293,-14.55078 v -23.63281 q 0,-8.30078 -0.293,-14.45313 -0.1953,-6.25 -0.5859,-10.74218 -0.293,-4.49219 -0.8789,-7.51953 -0.4883,-3.02735 -1.0743,-5.07813 v -0.39062 h 22.5586 v 0.39062 q -0.7812,2.24609 -1.2695,5.76172 -0.3906,3.41797 -0.8789,8.69141 3.9063,-3.125 8.3984,-6.15235 4.4922,-3.02734 9.1797,-5.37109 4.7852,-2.34375 9.5703,-3.8086 4.7852,-1.46484 9.4727,-1.46484 5.5664,0 9.8633,1.46484 4.2969,1.46485 7.5195,4.00391 3.2227,2.53906 5.3711,5.95703 2.2461,3.41797 3.418,7.32422 4.0039,-3.41797 8.6914,-6.73828 4.7851,-3.41797 9.7656,-6.05469 5.0781,-2.63672 10.2539,-4.29687 5.2734,-1.66016 10.2539,-1.66016 7.6172,0 12.8906,2.63672 5.3711,2.63672 8.6914,6.93359 3.418,4.29688 4.8829,9.86328 1.5625,5.46875 1.5625,11.13282 v 33.20312 q 0,8.30078 0.1953,14.55078 0.1953,6.15235 0.5859,10.64453 0.3906,4.49219 0.8789,7.51954 0.586,3.02734 1.1719,5.07812 v 0.39063 h -22.6563 v -0.39063 q 0.586,-2.05078 1.0743,-5.07812 0.5859,-3.02735 0.9765,-7.51954 0.3906,-4.49218 0.586,-10.64453 0.1953,-6.25 0.1953,-14.55078 v -27.63672 q 0,-12.89062 -5.1758,-18.94531 -5.1758,-6.05469 -13.8672,-6.05469 -3.0273,0 -6.7383,1.17188 -3.6133,1.17187 -7.5195,3.22265 -3.9063,2.05079 -7.8125,4.78516 -3.9063,2.63672 -7.3242,5.66406 0.1953,1.17188 0.1953,2.34375 0,1.17188 0,2.2461 v 33.20312 q 0,8.30078 0.1953,14.55078 0.293,6.15235 0.5859,10.64453 0.3907,4.49219 0.8789,7.51954 0.586,3.02734 1.1719,5.07812 v 0.39063 h -22.5586 v -0.39063 q 0.586,-2.05078 1.0742,-5.07812 0.4883,-3.02735 0.8789,-7.51954 0.3907,-4.49218 0.586,-10.64453 0.1953,-6.25 0.1953,-14.55078 z m 128.6133,-29.19922 q 6.1523,-3.32031 13.1836,-4.98046 7.0312,-1.75782 14.3554,-1.75782 10.8399,0 20.0196,3.71094 9.2773,3.61328 16.0156,10.35156 6.7383,6.73828 10.5469,16.40625 3.8086,9.66797 3.8086,21.67969 0,10.05859 -3.5157,19.33594 -3.4179,9.27734 -10.3515,16.40625 -6.836,7.1289 -17.0899,11.42578 -10.1562,4.19922 -23.6328,4.19922 -1.5625,0 -4.1992,-0.0977 -2.5391,-0.0976 -5.6641,-0.39062 -3.125,-0.29297 -6.6406,-0.78125 -3.5156,-0.48828 -6.8359,-1.26953 -4.6875,-1.07422 -9.4727,-2.34375 -4.6875,-1.36719 -8.9844,-3.02735 0.3907,-1.46484 0.6836,-4.88281 0.293,-3.51563 0.3907,-7.51953 0.1953,-4.00391 0.2929,-7.8125 0.098,-3.90625 0.098,-6.25 v -75.19531 q 0,-8.30079 -0.293,-14.45313 -0.1953,-6.25 -0.5859,-10.74219 -0.293,-4.49218 -0.8789,-7.51953 -0.4883,-3.02734 -1.0742,-5.07812 v -0.39063 h 22.5586 v 0.39063 q -0.586,2.05078 -1.0743,5.07812 -0.4882,3.02735 -0.8789,7.51953 -0.3906,4.49219 -0.5859,10.74219 -0.1953,6.15234 -0.1953,14.45313 z m 0,60.83985 q 0,7.91015 0.098,13.08594 0.1953,5.17578 0.4883,8.30078 4.1016,3.125 11.1328,5.27343 7.0313,2.14844 15.4297,2.14844 6.9336,0 12.6953,-2.73437 5.7617,-2.73438 9.8633,-7.91016 4.1016,-5.17578 6.3477,-12.59766 2.3437,-7.42187 2.3437,-16.79687 0,-10.54688 -1.9531,-19.53125 -1.9531,-9.08203 -6.0547,-15.625 -4.1016,-6.64063 -10.4492,-10.35156 -6.3477,-3.71094 -15.1367,-3.71094 -7.4219,0 -13.8672,3.02734 -6.4453,3.02735 -10.9375,8.78907 z m 99.8047,-27.63672 q 0,-8.30078 -0.293,-14.45313 -0.1953,-6.25 -0.5859,-10.74218 -0.293,-4.49219 -0.8789,-7.51953 -0.4883,-3.02735 -1.0743,-5.07813 v -0.39062 h 22.5586 v 0.39062 q -0.7812,2.24609 -1.3672,5.46875 -0.4882,3.22266 -0.7812,8.30078 3.6133,-3.02734 7.5195,-5.95703 3.9063,-2.92969 8.0078,-5.17578 4.1016,-2.24609 8.3008,-3.61328 4.2969,-1.36719 8.5938,-1.36719 2.6367,0 4.5898,0.29297 1.9531,0.19531 3.5156,0.68359 1.5625,0.39063 2.8321,0.97657 1.2695,0.48828 2.4414,0.97656 l -4.7852,18.65234 -1.6601,-0.39062 q -1.1719,-4.29688 -4.3946,-6.83594 -3.2226,-2.63672 -8.789,-2.63672 -3.0274,0 -6.3477,1.07422 -3.3203,1.07422 -6.7383,3.02734 -3.4179,1.85547 -6.8359,4.39453 -3.418,2.44141 -6.6406,5.17579 -0.1953,2.83203 -0.1953,6.15234 0,3.32031 0,7.03125 v 25.19531 q 0,8.30078 0.1953,14.55078 0.1953,6.15235 0.5859,10.64453 0.3906,4.49219 0.8789,7.51954 0.4883,3.02734 1.0742,5.07812 v 0.39063 h -22.5586 v -0.39063 q 0.586,-2.05078 1.0743,-5.07812 0.5859,-3.02735 0.8789,-7.51954 0.3906,-4.49218 0.5859,-10.64453 0.293,-6.25 0.293,-14.55078 z m 66.6015,33.00781 q 0,-7.71484 3.125,-13.3789 3.2227,-5.66407 8.4961,-9.66797 5.2735,-4.00391 12.0117,-6.44532 6.7383,-2.53906 13.9649,-3.90625 7.2265,-1.46484 14.2578,-1.95312 7.0312,-0.58594 12.8906,-0.68359 v -4.98047 q 0,-6.44532 -1.6601,-11.13282 -1.6602,-4.6875 -4.6875,-7.71484 -3.0274,-3.125 -7.3243,-4.58984 -4.1992,-1.5625 -9.2773,-1.5625 -3.5156,0 -6.9336,0.58593 -3.418,0.58594 -7.1289,1.95313 -3.6133,1.36719 -7.7148,3.71094 -4.0039,2.34375 -8.6914,5.95703 l -0.9766,-0.58594 6.6406,-13.76953 q 3.2227,-1.46484 6.3477,-2.34375 3.125,-0.97656 6.3476,-1.5625 3.2227,-0.58594 6.543,-0.78125 3.418,-0.29297 7.1289,-0.29297 10.2539,0 17.4805,2.53906 7.3242,2.44141 11.914,6.83594 4.6875,4.29688 6.836,10.15625 2.1484,5.76172 2.1484,12.40234 v 31.83594 q 0,8.30078 0.1953,14.55078 0.293,6.15235 0.586,10.64453 0.3906,4.49219 0.8789,7.51954 0.5859,3.02734 1.1718,5.07812 v 0.39063 h -21.582 v -0.39063 q 0.4883,-1.5625 0.6836,-3.51562 0.293,-1.95313 0.4883,-4.6875 -2.0508,1.75781 -4.8828,3.61328 -2.7344,1.85547 -6.3477,3.41797 -3.5156,1.46484 -7.9101,2.34375 -4.2969,0.97656 -9.4727,0.97656 -16.9922,0 -26.2695,-7.91016 -9.2774,-8.00781 -9.2774,-22.65625 z m 64.7461,-28.41797 q -8.8867,0.0977 -17.0898,1.07422 -8.2031,0.87891 -14.5508,3.8086 -6.25,2.92968 -10.0586,8.39843 -3.7109,5.3711 -3.7109,14.35547 0,11.52344 5.7617,17.57813 5.7617,6.05468 15.918,6.05468 4.6875,0 8.496,-1.26953 3.9063,-1.36718 6.836,-3.32031 3.0273,-2.05078 5.0781,-4.39453 2.0508,-2.44141 3.125,-4.6875 0.1953,-3.71094 0.1953,-8.20313 0,-4.58984 0,-10.35156 z"
       id="text1"
       style="font-size:200px;font-family:Marcellus;-inkscape-font-specification:Marcellus;white-space:pre;fill:url(#linearGradient36);stroke-linecap:round"
       inkscape:label="titleText"
       transform="matrix(0.26458333,0,0,0.26458333,64.598643,11.727242)"
       aria-label="EcLibs Penumbra" />
  </g>
</svg>
